<?xml version="1.0" standalone="no"?>
<!DOCTYPE svg PUBLIC "-//W3C//DTD SVG 20010904//EN"
 "http://www.w3.org/TR/2001/REC-SVG-20010904/DTD/svg10.dtd">
<svg version="1.0" xmlns="http://www.w3.org/2000/svg"
 width="197.000000pt" height="74.000000pt" viewBox="0 0 197.000000 74.000000"
 preserveAspectRatio="xMidYMid meet">
<metadata>
Created by potrace 1.16, written by Peter Selinger 2001-2019
</metadata>
<g transform="translate(0.000000,74.000000) scale(0.100000,-0.100000)"
fill="#000000" stroke="none">
<path d="M738 490 c-27 -28 -30 -36 -25 -77 2 -25 11 -51 19 -59 23 -24 71
-32 108 -20 33 10 35 14 38 59 l3 47 -40 0 c-34 0 -41 -3 -41 -20 0 -13 7 -20
20 -20 23 0 27 -18 5 -26 -51 -20 -91 35 -59 83 14 22 21 24 54 19 45 -7 63
10 35 31 -33 24 -83 16 -117 -17z"/>
<path d="M912 508 c-7 -7 -12 -44 -12 -95 0 -82 0 -83 25 -83 21 0 25 5 25 30
0 17 4 30 8 30 5 0 21 -13 37 -30 16 -17 39 -30 53 -30 l23 0 -21 30 c-20 28
-20 32 -6 52 23 33 19 64 -10 87 -30 24 -102 29 -122 9z"/>
<path d="M1093 513 c-9 -3 -13 -27 -13 -67 0 -83 23 -116 81 -116 63 0 80 25
77 113 -2 59 -6 72 -20 75 -16 3 -18 -5 -18 -56 0 -76 -6 -92 -36 -92 -31 0
-44 27 -44 94 0 55 -2 59 -27 49z"/>
<path d="M1270 425 c0 -87 2 -95 19 -95 17 0 20 8 23 53 l3 52 40 -52 c21 -29
47 -53 57 -53 16 0 18 10 18 95 0 88 -1 95 -20 95 -17 0 -20 -7 -20 -52 l0
-53 -46 53 c-66 76 -74 71 -74 -43z"/>
<path d="M1478 509 c-12 -6 -18 -22 -18 -45 0 -36 11 -45 73 -58 35 -8 36 -36
2 -36 -14 0 -34 6 -45 12 -14 9 -23 9 -30 2 -18 -18 0 -43 36 -53 47 -13 86 0
102 33 12 23 11 31 -2 51 -9 14 -29 27 -44 31 -45 10 -52 13 -52 25 0 7 16 9
50 4 42 -6 50 -4 50 9 0 32 -82 49 -122 25z"/>
<path d="M1631 506 c-7 -9 -11 -41 -10 -78 3 -101 0 -98 80 -98 62 0 70 2 67
18 -2 13 -15 18 -51 20 -33 2 -47 7 -47 18 0 10 12 14 45 14 41 0 45 2 45 25
0 23 -4 25 -45 25 -25 0 -45 5 -45 10 0 6 17 10 39 10 39 0 68 20 56 40 -10
16 -120 13 -134 -4z"/>
<path d="M1824 508 c-49 -23 -60 -113 -19 -153 18 -19 35 -25 67 -25 59 1 78
18 78 69 l0 41 -46 0 c-38 0 -45 -3 -40 -16 3 -9 6 -18 6 -20 0 -2 9 -4 21 -4
29 0 18 -24 -13 -28 -51 -6 -78 57 -38 93 14 13 28 16 54 11 41 -8 59 10 31
31 -22 15 -71 16 -101 1z"/>
<path d="M277 440 c-70 -55 -25 -170 66 -170 28 0 73 32 82 59 5 16 17 19 106
19 l101 0 -5 -42 c-4 -26 -3 -34 2 -21 l8 20 6 -20 c3 -11 4 -2 1 20 -3 28 -2
34 4 20 8 -17 10 -16 14 12 2 18 2 37 -1 42 -4 5 -83 11 -176 12 l-170 3 0
-25 c0 -22 3 -24 48 -21 53 3 59 -7 21 -37 -35 -28 -69 -26 -99 4 -32 32 -33
74 -1 104 25 24 63 26 111 6 20 -8 20 -8 1 13 -25 29 -84 29 -119 2z"/>
</g>
</svg>
