<?xml version="1.0" standalone="no"?>
<!DOCTYPE svg PUBLIC "-//W3C//DTD SVG 20010904//EN"
 "http://www.w3.org/TR/2001/REC-SVG-20010904/DTD/svg10.dtd">
<svg version="1.0" xmlns="http://www.w3.org/2000/svg"
 width="222.000000pt" height="143.000000pt" viewBox="0 0 222.000000 143.000000"
 preserveAspectRatio="xMidYMid meet">
<metadata>
Created by potrace 1.16, written by Peter Selinger 2001-2019
</metadata>
<g transform="translate(0.000000,143.000000) scale(0.100000,-0.100000)"
fill="#000000" stroke="none">
<path d="M1019 1041 c-63 -63 -17 -171 73 -171 31 0 85 34 93 59 6 20 14 21
131 21 117 0 124 1 124 20 0 19 -7 20 -160 22 -88 1 -172 2 -187 2 -23 1 -28
-3 -28 -24 0 -24 2 -25 53 -22 51 3 53 3 43 -17 -25 -46 -88 -54 -126 -16 -52
51 -17 135 55 135 21 0 42 -4 45 -10 3 -5 14 -10 23 -10 14 1 13 4 -7 20 -36
31 -96 27 -132 -9z"/>
<path d="M393 490 c-31 -13 -63 -68 -63 -108 0 -41 23 -88 51 -103 32 -17 104
-14 133 5 23 14 26 23 26 71 l0 55 -34 0 c-47 0 -66 -9 -66 -31 0 -14 7 -19
26 -19 19 0 25 -5 22 -17 -4 -25 -70 -30 -88 -8 -19 23 -16 71 5 96 16 17 27
19 65 14 35 -5 49 -3 59 9 26 31 -78 59 -136 36z"/>
<path d="M583 493 c-9 -3 -13 -36 -13 -114 l0 -109 25 0 c22 0 25 4 25 35 0
22 5 35 13 35 7 0 28 -16 47 -35 23 -24 43 -35 62 -35 35 0 35 7 2 41 l-26 28
21 27 c38 48 20 108 -38 124 -38 10 -97 12 -118 3z"/>
<path d="M1020 385 l0 -115 25 0 c23 0 24 4 27 61 l3 62 48 -62 c36 -45 55
-61 73 -61 l25 0 -3 113 -3 112 -25 0 c-23 0 -25 -4 -30 -59 l-5 -60 -43 56
c-40 52 -59 68 -83 68 -5 0 -9 -52 -9 -115z"/>
<path d="M1272 484 c-27 -19 -30 -74 -4 -97 9 -8 34 -18 54 -22 50 -10 67 -30
37 -46 -19 -9 -29 -8 -56 6 -23 13 -39 15 -53 9 -19 -8 -19 -11 -5 -31 37 -53
159 -47 179 8 20 58 -6 87 -92 104 -52 11 -32 30 30 30 31 0 59 3 63 6 3 4 -6
16 -21 28 -32 25 -99 28 -132 5z"/>
<path d="M1468 489 c-15 -8 -18 -25 -18 -99 0 -48 3 -95 6 -104 5 -13 23 -16
90 -16 46 0 84 4 84 9 0 32 -14 41 -66 41 -47 0 -54 2 -54 20 0 18 7 20 55 20
52 0 55 1 55 25 0 24 -3 25 -55 25 -42 0 -55 3 -55 15 0 11 12 15 49 15 51 0
78 18 67 45 -4 11 -22 15 -73 15 -37 0 -76 -5 -85 -11z"/>
<path d="M1692 484 c-67 -46 -67 -169 -1 -205 32 -17 104 -14 133 5 23 14 26
23 26 71 l0 55 -50 0 c-46 0 -50 -2 -50 -24 0 -18 6 -25 23 -28 37 -5 27 -33
-15 -36 -28 -2 -40 2 -52 20 -21 30 -20 50 5 82 20 25 26 27 69 21 57 -8 75 8
40 37 -28 22 -97 24 -128 2z"/>
<path d="M790 405 c0 -78 2 -88 25 -110 19 -20 34 -25 74 -25 42 0 53 4 70 26
17 22 21 41 21 110 0 83 0 84 -25 84 -24 0 -25 -2 -25 -73 0 -77 -9 -97 -45
-97 -36 0 -45 20 -45 97 0 71 -1 73 -25 73 -25 0 -25 -1 -25 -85z"/>
</g>
</svg>
